<svg id="Layer_7" data-name="Layer 7" xmlns="http://www.w3.org/2000/svg" xmlns:xlink="http://www.w3.org/1999/xlink" viewBox="0 0 1810.83 902.81"><defs><style>.cls-1{fill:none;}.cls-13,.cls-2,.cls-21,.cls-27,.cls-60{font-size:94.99px;fill:#231f20;font-family:SinhalaMN, Sinhala MN;}.cls-13,.cls-3{letter-spacing:0.1em;}.cls-27,.cls-4{letter-spacing:0.1em;}.cls-5{letter-spacing:0.84em;}.cls-6{letter-spacing:0.07em;}.cls-7{letter-spacing:0.07em;}.cls-8{letter-spacing:0.84em;}.cls-9{letter-spacing:0.1em;}.cls-10{letter-spacing:0.1em;}.cls-11{letter-spacing:0.1em;}.cls-12{letter-spacing:-0.03em;}.cls-14{letter-spacing:0.75em;}.cls-15,.cls-60{letter-spacing:0.1em;}.cls-16{letter-spacing:0.75em;}.cls-17{letter-spacing:0.1em;}.cls-18{letter-spacing:0.09em;}.cls-19{letter-spacing:0.1em;}.cls-20{letter-spacing:0em;}.cls-21,.cls-41{letter-spacing:0.09em;}.cls-22{letter-spacing:2.76em;}.cls-23{letter-spacing:0.09em;}.cls-24{letter-spacing:0em;}.cls-25{letter-spacing:0.46em;}.cls-26{letter-spacing:0.46em;}.cls-28{letter-spacing:0.37em;}.cls-29{letter-spacing:0.37em;}.cls-30{letter-spacing:0.08em;}.cls-31{letter-spacing:-0.03em;}.cls-32{letter-spacing:0.26em;}.cls-33{letter-spacing:0.26em;}.cls-34{letter-spacing:0.1em;}.cls-35{letter-spacing:0.26em;}.cls-36{letter-spacing:0.09em;}.cls-37{letter-spacing:0.1em;}.cls-38{letter-spacing:0.6em;}.cls-39{letter-spacing:0.11em;}.cls-40{letter-spacing:0.6em;}.cls-42{letter-spacing:0.09em;}.cls-43{letter-spacing:0.8em;}.cls-44{clip-path:url(#clip-path);}.cls-45{letter-spacing:1.18em;}.cls-46{letter-spacing:0.09em;}.cls-47{letter-spacing:0.36em;}.cls-48{letter-spacing:0.36em;}.cls-49{letter-spacing:0em;}.cls-50{letter-spacing:0.48em;}.cls-51{letter-spacing:0.09em;}.cls-52{letter-spacing:0.48em;}.cls-53{letter-spacing:0.48em;}.cls-54{letter-spacing:1.03em;}.cls-55{letter-spacing:1.03em;}.cls-56{letter-spacing:0.09em;}.cls-57{letter-spacing:0.1em;}.cls-58{letter-spacing:0.57em;}.cls-59{letter-spacing:0.57em;}.cls-61{letter-spacing:1.32em;}.cls-62{letter-spacing:0.09em;}.cls-63{letter-spacing:0.38em;}.cls-64{letter-spacing:0.1em;}.cls-65{letter-spacing:0.07em;}.cls-66{letter-spacing:0.38em;}.cls-67{letter-spacing:-0.03em;}</style><clipPath id="clip-path" transform="translate(-32.58 -94.19)"><rect class="cls-1" x="19" y="33.13" width="1870" height="1067.52"/></clipPath></defs><text class="cls-2" transform="translate(1731 0) rotate(90)"><tspan class="cls-3">o</tspan><tspan class="cls-4" x="51.43" y="0">h</tspan><tspan class="cls-5" x="98.22" y="0"> </tspan><tspan class="cls-6" x="197.59" y="0">.</tspan><tspan class="cls-5" x="218.75" y="0"> </tspan><tspan class="cls-7" x="318.12" y="0">.</tspan><tspan class="cls-5" x="339.28" y="0"> </tspan><tspan class="cls-7" x="438.65" y="0">.</tspan><tspan class="cls-8" x="459.81" y="0"> </tspan><tspan class="cls-3" x="559.18" y="0">so</tspan><tspan class="cls-9" x="651.46" y="0">r</tspan><tspan class="cls-10" x="687.25" y="0">r</tspan><tspan class="cls-11" x="723.71" y="0">y</tspan><tspan class="cls-8" x="769.76" y="0"> </tspan><tspan class="cls-12" x="869.13" y="0">,</tspan><tspan x="883.3" y="0"> </tspan></text><text class="cls-13" transform="translate(1617 0) rotate(90)">i<tspan class="cls-14" x="25.04" y="0"> </tspan><tspan class="cls-15" x="115.48" y="0">didn</tspan><tspan class="cls-11" x="285.2" y="0">t</tspan><tspan class="cls-16" x="317.47" y="0"> </tspan><tspan x="407.91" y="0">no</tspan><tspan class="cls-17" x="505.9" y="0">t</tspan><tspan class="cls-15" x="538.17" y="0">i</tspan><tspan class="cls-17" x="563.21" y="0">ce</tspan><tspan class="cls-14" x="657.95" y="0"> </tspan><tspan class="cls-18" x="748.4" y="0">y</tspan><tspan class="cls-19" x="793.78" y="0">o</tspan><tspan class="cls-20" x="845.21" y="0">u </tspan></text><text class="cls-21" transform="translate(1503.01 0) rotate(90)">w<tspan class="cls-4" x="62.73" y="0">e</tspan><tspan x="110.68" y="0">r</tspan><tspan class="cls-4" x="146.19" y="0">e</tspan><tspan class="cls-22" x="194.14" y="0"> </tspan><tspan class="cls-4" x="475.33" y="0">i</tspan><tspan class="cls-23" x="500.46" y="0">n</tspan><tspan class="cls-18" x="546.64" y="0">v</tspan><tspan class="cls-11" x="590.36" y="0">e</tspan><tspan class="cls-3" x="638.31" y="0">s</tspan><tspan class="cls-11" x="679.16" y="0">t</tspan><tspan class="cls-15" x="711.44" y="0">i</tspan><tspan class="cls-4" x="736.47" y="0">ga</tspan><tspan class="cls-24" x="831.49" y="0">t</tspan></text><text class="cls-2" transform="translate(1503.01 864.3) rotate(90)">-</text><text class="cls-2" transform="translate(1389.02 0) rotate(90)"><tspan class="cls-3">in</tspan><tspan class="cls-4" x="71.59" y="0">g</tspan><tspan class="cls-25" x="122.19" y="0" xml:space="preserve">  </tspan><tspan class="cls-17" x="249.12" y="0">a</tspan><tspan class="cls-15" x="293.54" y="0">bou</tspan><tspan class="cls-11" x="440.96" y="0">t</tspan><tspan class="cls-26" x="473.24" y="0"> </tspan><tspan class="cls-11" x="536.7" y="0">the</tspan><tspan class="cls-25" x="663.72" y="0"> </tspan><tspan class="cls-4" x="727.18" y="0">S</tspan><tspan class="cls-19" x="773.33" y="0">of</tspan><tspan x="860.32" y="0">t </tspan></text><text class="cls-27" transform="translate(1275.03 0) rotate(90)">C<tspan class="cls-3" x="62.28" y="0">ooki</tspan><tspan x="233.81" y="0">e</tspan><tspan class="cls-28" x="281.76" y="0"> </tspan><tspan class="cls-3" x="336.2" y="0">miss</tspan><tspan x="513.44" y="0">i</tspan><tspan class="cls-15" x="538.57" y="0">n</tspan><tspan class="cls-17" x="585.13" y="0">g</tspan><tspan class="cls-29" x="635.72" y="0"> </tspan><tspan class="cls-11" x="690.16" y="0">ca</tspan><tspan class="cls-19" x="781.38" y="0">s</tspan><tspan class="cls-30" x="822.23" y="0">e</tspan><tspan class="cls-31" x="868.76" y="0">,</tspan><tspan class="cls-20" x="882.93" y="0"> </tspan></text><text class="cls-2" transform="translate(1161.04 0) rotate(90)"><tspan class="cls-3">i</tspan><tspan class="cls-32" x="25.04" y="0"> </tspan><tspan class="cls-3" x="69.22" y="0">w</tspan><tspan class="cls-17" x="132.52" y="0">a</tspan><tspan class="cls-15" x="176.94" y="0">s</tspan><tspan class="cls-33" x="217.8" y="0"> </tspan><tspan class="cls-15" x="261.98" y="0">los</tspan><tspan class="cls-11" x="379.34" y="0">t</tspan><tspan class="cls-33" x="411.62" y="0"> </tspan><tspan class="cls-4" x="455.79" y="0">i</tspan><tspan class="cls-34" x="480.93" y="0">n</tspan><tspan class="cls-35" x="527.48" y="0"> </tspan><tspan class="cls-36" x="571.66" y="0">m</tspan><tspan class="cls-4" x="641.11" y="0">y</tspan><tspan class="cls-33" x="687.16" y="0"> </tspan><tspan class="cls-37" x="731.34" y="0">o</tspan><tspan class="cls-3" x="782.48" y="0">w</tspan><tspan x="845.79" y="0">n </tspan></text><text class="cls-2" transform="translate(1047.04 0) rotate(90)"><tspan class="cls-15">pi</tspan><tspan class="cls-4" x="74.19" y="0">ty</tspan><tspan class="cls-38" x="152.52" y="0"> </tspan><tspan class="cls-3" x="229.37" y="0">p</tspan><tspan class="cls-4" x="278.53" y="0">a</tspan><tspan class="cls-39" x="322.96" y="0">r</tspan><tspan class="cls-4" x="359.7" y="0">ty</tspan><tspan class="cls-38" x="438.02" y="0"> </tspan><tspan class="cls-34" x="514.88" y="0">of</tspan><tspan class="cls-40" x="601.87" y="0"> </tspan><tspan class="cls-17" x="678.73" y="0">tra</tspan><tspan class="cls-3" x="791.6" y="0">i</tspan><tspan x="816.64" y="0">n</tspan></text><text class="cls-2" transform="translate(1047.04 864.22) rotate(90)">-</text><text class="cls-2" transform="translate(933.05 0) rotate(90)"><tspan class="cls-3">w</tspan><tspan class="cls-41" x="63.3" y="0">r</tspan><tspan class="cls-4" x="98.81" y="0">ec</tspan><tspan class="cls-42" x="193.55" y="0">k</tspan><tspan class="cls-4" x="236.24" y="0">e</tspan><tspan class="cls-15" x="284.19" y="0">d</tspan><tspan class="cls-43" x="333.25" y="0"> </tspan><tspan class="cls-4" x="428.35" y="0">th</tspan><tspan class="cls-15" x="507.42" y="0">ou</tspan><tspan class="cls-17" x="606.1" y="0">ght</tspan><tspan class="cls-3" x="735.76" y="0">s</tspan><tspan class="cls-43" x="776.61" y="0"> </tspan><tspan x="871.71" y="0">.</tspan></text><g class="cls-44"><text class="cls-2" transform="translate(705.06 0) rotate(90)"><tspan class="cls-3">i&apos;ll</tspan><tspan class="cls-45" x="96.43" y="0"> </tspan><tspan class="cls-15" x="228.2" y="0">p</tspan><tspan class="cls-46" x="277.35" y="0">r</tspan><tspan class="cls-3" x="312.67" y="0">ob</tspan><tspan class="cls-17" x="412.83" y="0">a</tspan><tspan class="cls-3" x="457.26" y="0">b</tspan><tspan class="cls-37" x="506" y="0">l</tspan><tspan class="cls-17" x="530.8" y="0">y</tspan><tspan class="cls-45" x="576.85" y="0"> </tspan><tspan class="cls-15" x="708.61" y="0">bo</tspan><tspan class="cls-41" x="808.78" y="0">r</tspan><tspan x="844.28" y="0">e </tspan></text></g><text class="cls-21" transform="translate(591.07 0) rotate(90)">y<tspan class="cls-3" x="45.39" y="0">ou</tspan><tspan class="cls-47" x="144.07" y="0"> </tspan><tspan class="cls-3" x="197.56" y="0">w</tspan><tspan class="cls-4" x="260.86" y="0">ith</tspan><tspan class="cls-47" x="365.06" y="0"> </tspan><tspan class="cls-15" x="418.55" y="0">d</tspan><tspan class="cls-11" x="467.61" y="0">etai</tspan><tspan class="cls-3" x="617.39" y="0">ls</tspan><tspan class="cls-48" x="683.33" y="0"> </tspan><tspan class="cls-17" x="736.91" y="0">tha</tspan><tspan class="cls-49" x="860.4" y="0">t </tspan></text><text class="cls-2" transform="translate(477.07 0) rotate(90)"><tspan class="cls-3">mos</tspan><tspan class="cls-4" x="162.77" y="0">t</tspan><tspan class="cls-50" x="195.05" y="0"> </tspan><tspan class="cls-3" x="260.41" y="0">li</tspan><tspan class="cls-51" x="310.53" y="0">k</tspan><tspan class="cls-11" x="353.21" y="0">e</tspan><tspan class="cls-9" x="401.17" y="0">l</tspan><tspan class="cls-17" x="425.96" y="0">y</tspan><tspan class="cls-52" x="472.01" y="0"> </tspan><tspan class="cls-18" x="537.38" y="0">w</tspan><tspan class="cls-15" x="600.11" y="0">on</tspan><tspan class="cls-11" x="698.1" y="0">t</tspan><tspan class="cls-53" x="730.37" y="0"> </tspan><tspan class="cls-3" x="795.73" y="0">b</tspan><tspan x="844.47" y="0">e </tspan></text><text class="cls-2" transform="translate(363.09 0) rotate(90)"><tspan class="cls-15">b</tspan><tspan class="cls-4" x="48.74" y="0">e</tspan><tspan class="cls-3" x="96.69" y="0">n</tspan><tspan class="cls-4" x="143.25" y="0">e</tspan><tspan class="cls-3" x="191.2" y="0">f</tspan><tspan class="cls-4" x="226.76" y="0">i</tspan><tspan class="cls-3" x="251.9" y="0">c</tspan><tspan class="cls-4" x="298.59" y="0">ia</tspan><tspan class="cls-3" x="368.15" y="0">l</tspan><tspan class="cls-54" x="393.23" y="0"> </tspan><tspan class="cls-17" x="510.94" y="0">t</tspan><tspan class="cls-15" x="543.21" y="0">o</tspan><tspan class="cls-55" x="594.64" y="0"> </tspan><tspan class="cls-56" x="712.35" y="0">y</tspan><tspan class="cls-34" x="757.73" y="0">ou</tspan><tspan x="856.41" y="0">r </tspan></text><text class="cls-2" transform="translate(249.09 0) rotate(90)"><tspan class="cls-4">e</tspan><tspan class="cls-3" x="47.95" y="0">f</tspan><tspan class="cls-57" x="83.52" y="0">f</tspan><tspan class="cls-3" x="118.8" y="0">o</tspan><tspan class="cls-39" x="170.23" y="0">r</tspan><tspan class="cls-4" x="206.97" y="0">t</tspan><tspan class="cls-15" x="239.24" y="0">s</tspan><tspan class="cls-58" x="280.09" y="0"> </tspan><tspan class="cls-3" x="353.44" y="0">in</tspan><tspan class="cls-59" x="425.03" y="0"> </tspan><tspan class="cls-11" x="498.37" y="0">t</tspan><tspan class="cls-10" x="530.65" y="0">r</tspan><tspan class="cls-17" x="567.1" y="0">yi</tspan><tspan class="cls-15" x="638.28" y="0">n</tspan><tspan class="cls-4" x="684.84" y="0">g</tspan><tspan class="cls-59" x="735.44" y="0"> </tspan><tspan class="cls-11" x="808.78" y="0">t</tspan><tspan x="841.05" y="0">o </tspan></text><g class="cls-44"><text class="cls-60" transform="translate(135.09) rotate(90)">sol<tspan class="cls-41" x="117.36" y="0">v</tspan><tspan class="cls-4" x="161.08" y="0">e</tspan><tspan class="cls-61" x="209.03" y="0"> </tspan><tspan class="cls-4" x="354.19" y="0">the</tspan><tspan class="cls-61" x="481.21" y="0"> </tspan><tspan class="cls-17" x="626.37" y="0">c</tspan><tspan x="673.16" y="0">ooki</tspan><tspan class="cls-49" x="844.69" y="0">e </tspan></text></g><text class="cls-2" transform="translate(21.1) rotate(90)"><tspan class="cls-9">m</tspan><tspan class="cls-15" x="70.21" y="0">u</tspan><tspan class="cls-62" x="117.46" y="0">r</tspan><tspan class="cls-15" x="153.16" y="0">d</tspan><tspan class="cls-4" x="202.22" y="0">er</tspan><tspan class="cls-63" x="286.34" y="0"> </tspan><tspan class="cls-36" x="342.3" y="0">m</tspan><tspan class="cls-4" x="411.75" y="0">y</tspan><tspan class="cls-3" x="457.8" y="0">s</tspan><tspan class="cls-11" x="498.65" y="0">te</tspan><tspan class="cls-64" x="578.88" y="0">r</tspan><tspan class="cls-11" x="615.33" y="0">y</tspan><tspan class="cls-63" x="661.38" y="0"> </tspan><tspan class="cls-6" x="717.34" y="0">.</tspan><tspan class="cls-63" x="738.5" y="0"> </tspan><tspan class="cls-65" x="794.46" y="0">.</tspan><tspan class="cls-66" x="815.62" y="0"> </tspan><tspan class="cls-67" x="871.58" y="0">.</tspan><tspan x="883.33" y="0"> </tspan></text></svg>